<?xml version="1.0" encoding="UTF-8" standalone="no"?>
<svg
   xmlns:dc="http://purl.org/dc/elements/1.1/"
   xmlns:cc="http://creativecommons.org/ns#"
   xmlns:rdf="http://www.w3.org/1999/02/22-rdf-syntax-ns#"
   xmlns:svg="http://www.w3.org/2000/svg"
   xmlns="http://www.w3.org/2000/svg"
   xmlns:sodipodi="http://sodipodi.sourceforge.net/DTD/sodipodi-0.dtd"
   xmlns:inkscape="http://www.inkscape.org/namespaces/inkscape"
   viewBox="0 0 45 16"
   width="45"
   height="16"
   version="1.1"
   id="svg14"
   sodipodi:docname="logo-github.svg"
   inkscape:version="1.0 (4035a4fb49, 2020-05-01)">
  <metadata
     id="metadata20">
    <rdf:RDF>
      <cc:Work
         rdf:about="">
        <dc:format>image/svg+xml</dc:format>
        <dc:type
           rdf:resource="http://purl.org/dc/dcmitype/StillImage" />
        <dc:title></dc:title>
      </cc:Work>
    </rdf:RDF>
  </metadata>
  <defs
     id="defs18" />
  <sodipodi:namedview
     inkscape:document-rotation="0"
     pagecolor="#ffffff"
     bordercolor="#666666"
     borderopacity="1"
     objecttolerance="10"
     gridtolerance="10"
     guidetolerance="10"
     inkscape:pageopacity="0"
     inkscape:pageshadow="2"
     inkscape:window-width="882"
     inkscape:window-height="480"
     id="namedview16"
     showgrid="false"
     inkscape:zoom="4.1888889"
     inkscape:cx="25.007974"
     inkscape:cy="1.4202949"
     inkscape:window-x="0"
     inkscape:window-y="25"
     inkscape:window-maximized="0"
     inkscape:current-layer="svg14" />
  <path
     fill-rule="evenodd"
     d="m 19.603333,11.656397 h -0.01812 c 0.0082,0 0.01359,0.0091 0.02174,0.01 h 0.0054 l -0.0091,-0.0091 z m 0.0036,0.01 c -0.08426,9.06e-4 -0.296266,0.0453 -0.520051,0.0453 -0.70669,0 -0.951313,-0.326165 -0.951313,-0.751991 V 8.1229477 h 1.44056 c 0.08154,0 0.144962,-0.072481 0.144962,-0.1721424 V 6.4105838 c 0,-0.081541 -0.07248,-0.1540221 -0.144962,-0.1540221 h -1.44056 V 4.3448751 c 0,-0.072481 -0.0453,-0.1177817 -0.126842,-0.1177817 H 16.05174 c -0.08154,0 -0.126842,0.045301 -0.126842,0.1177817 v 1.9660473 c 0,0 -0.987554,0.2446234 -1.050975,0.2536836 -0.07248,0.01812 -0.117781,0.081541 -0.117781,0.1540221 v 1.2321772 c 0,0.099661 0.07248,0.1721424 0.154022,0.1721424 h 1.005674 v 2.9717213 c 0,2.210671 1.540221,2.437174 2.591196,2.437174 0.480186,0 1.060035,-0.154022 1.150636,-0.199323 0.05436,-0.01812 0.08154,-0.08154 0.08154,-0.144962 V 11.828539 A 0.16036423,0.16036423 0 0 0 19.606957,11.665457 Z M 41.075832,9.6722292 c 0,-1.6398828 -0.661389,-1.8573258 -1.359019,-1.7848448 -0.543608,0.03624 -0.978494,0.3080443 -0.978494,0.3080443 v 3.1891643 c 0,0 0.443947,0.308044 1.105336,0.326165 0.933193,0.02718 1.232177,-0.308045 1.232177,-2.0385288 z m 2.201611,-0.144962 c 0,3.1076228 -1.005674,3.9955158 -2.763339,3.9955158 -1.485861,0 -2.283152,-0.751991 -2.283152,-0.751991 0,0 -0.03624,0.416766 -0.08154,0.471127 -0.02718,0.05436 -0.07248,0.07248 -0.126842,0.07248 h -1.340899 c -0.0906,0 -0.172143,-0.07248 -0.172143,-0.154022 l 0.01812,-10.0658003 c 0,-0.081541 0.07248,-0.1540222 0.154022,-0.1540222 h 1.929807 c 0.08154,0 0.154022,0.072481 0.154022,0.1540222 v 3.4156675 c 0,0 0.74293,-0.4801867 1.830145,-0.4801867 l -0.0091,-0.01812 c 1.087215,0 2.690858,0.4077057 2.690858,3.5153289 z m -7.90043,-3.2707055 h -1.902627 c -0.09966,0 -0.154022,0.072481 -0.154022,0.1721424 v 4.9287089 c 0,0 -0.498307,0.353345 -1.177816,0.353345 -0.67951,0 -0.878833,-0.308045 -0.878833,-0.987554 v -4.30356 c 0,-0.081541 -0.07248,-0.1540222 -0.154022,-0.1540222 h -1.938867 c -0.08154,0 -0.154022,0.072481 -0.154022,0.1540222 v 4.629724 c 0,1.993228 1.114396,2.491535 2.645557,2.491535 1.259357,0 2.283152,-0.69763 2.283152,-0.69763 0,0 0.0453,0.353345 0.07248,0.407706 0.01812,0.0453 0.08154,0.08154 0.144962,0.08154 h 1.214057 c 0.09966,0 0.154022,-0.07248 0.154022,-0.154022 l 0.01812,-6.7679142 c 0,-0.081541 -0.07248,-0.1540221 -0.172142,-0.1540221 z m -21.472499,-0.00906 h -1.929807 c -0.08154,0 -0.154022,0.081541 -0.154022,0.1812025 v 6.6501328 c 0,0.181202 0.117781,0.244623 0.271804,0.244623 h 1.739544 c 0.181202,0 0.226503,-0.08154 0.226503,-0.244623 V 6.4015237 c 0,-0.081541 -0.07248,-0.1540221 -0.154022,-0.154022 z M 12.953201,3.1851789 c -0.69763,0 -1.250298,0.5526677 -1.250298,1.2502974 0,0.6976297 0.552668,1.2502974 1.250298,1.2502974 0.679509,0 1.232177,-0.5526677 1.232177,-1.2502974 0,-0.6976297 -0.552668,-1.2502974 -1.232177,-1.2502974 z M 27.893348,2.9586758 h -1.911686 c -0.08154,0 -0.154022,0.072481 -0.154022,0.1540221 V 6.8182895 H 22.828738 V 3.1126979 c 0,-0.081541 -0.07248,-0.1540221 -0.154022,-0.1540221 h -1.929807 c -0.08154,0 -0.154022,0.072481 -0.154022,0.1540221 V 13.178498 c 0,0.08154 0.08154,0.154022 0.154022,0.154022 h 1.929807 c 0.08154,0 0.154022,-0.07248 0.154022,-0.154022 V 8.8749381 h 2.998902 l -0.01812,4.3035599 c 0,0.08154 0.07248,0.154022 0.154023,0.154022 h 1.929806 c 0.08154,0 0.154023,-0.07248 0.154023,-0.154022 V 3.1126979 c 0,-0.081541 -0.07248,-0.1540221 -0.154024,-0.1540221 z M 10.79689,7.4162578 V 12.61677 c 0,0.03624 -0.0091,0.09966 -0.05436,0.117782 0,0 -1.1325166,0.806351 -2.9989026,0.806351 -2.2559714,0 -4.9287086,-0.70669 -4.9287086,-5.3635946 0,-4.6569048 2.3375125,-5.6172782 4.6206646,-5.608218 1.975107,0 2.7723976,0.4439461 2.8992406,0.5254873 0.03624,0.045301 0.05436,0.081541 0.05436,0.1268417 l -0.380526,1.6127025 c 0,0.081541 -0.08154,0.1812025 -0.1812026,0.1540221 -0.326165,-0.099661 -0.815411,-0.2989841 -1.966047,-0.2989841 -1.3318389,0 -2.7633388,0.3805253 -2.7633388,3.379427 0,2.9989021 1.3590189,3.3522471 2.3375128,3.3522471 0.833531,0 1.132515,-0.09966 1.132515,-0.09966 V 9.2373432 h -1.331837 c -0.09966,0 -0.172142,-0.072481 -0.172142,-0.1540222 V 7.4162578 c 0,-0.081541 0.07248,-0.1540221 0.172142,-0.1540221 h 3.3884876 c 0.09966,0 0.172142,0.072481 0.172142,0.1540221 z"
     id="path12"
     style="fill:#e6e6e6;stroke-width:0.906013" />
</svg>
